HIERARCHY
ROOT Hips
{
  OFFSET 90.7885 88.945 -76.2838
  CHANNELS 6 Xposition Yposition Zposition Zrotation Xrotation Yrotation
  JOINT LeftUpLeg
  {
    OFFSET 8.64259 1.95398 -2.38835
    CHANNELS 3 Zrotation Xrotation Yrotation
    JOINT LeftLeg
    {
      OFFSET 43.7702 0 0
      CHANNELS 3 Zrotation Xrotation Yrotation
      JOINT LeftFoot
      {
        OFFSET 40.6238 0 0
        CHANNELS 3 Zrotation Xrotation Yrotation
        JOINT LeftToeBase
        {
          OFFSET 12.7242 0 0
          CHANNELS 3 Zrotation Xrotation Yrotation
          End Site
          {
            OFFSET 0 0 0
          }
        }
      }
    }
  }
  JOINT RightUpLeg
  {
    OFFSET -8.2249 1.95398 -2.59336
    CHANNELS 3 Zrotation Xrotation Yrotation
    JOINT RightLeg
    {
      OFFSET 43.5653 0 0
      CHANNELS 3 Zrotation Xrotation Yrotation
      JOINT RightFoot
      {
        OFFSET 40.6238 0 0
        CHANNELS 3 Zrotation Xrotation Yrotation
        JOINT RightToeBase
        {
          OFFSET 12.7242 0 0
          CHANNELS 3 Zrotation Xrotation Yrotation
          End Site
          {
            OFFSET 0 0 0
          }
        }
      }
    }
  }
  JOINT Spine
  {
    OFFSET 0.165834 0.87714 6.61349
    CHANNELS 3 Zrotation Xrotation Yrotation
    JOINT Spine1
    {
      OFFSET 7.38963 1.71661e-005 0
      CHANNELS 3 Zrotation Xrotation Yrotation
      JOINT Spine2
      {
        OFFSET 11.9445 1.14441e-005 0
        CHANNELS 3 Zrotation Xrotation Yrotation
        JOINT Spine3
        {
          OFFSET 14.7254 4.19617e-005 0
          CHANNELS 3 Zrotation Xrotation Yrotation
          JOINT Spine4
          {
            OFFSET 10.9679 0 0
            CHANNELS 3 Zrotation Xrotation Yrotation
            JOINT RightShoulder
            {
              OFFSET 2.46616 -1.6653 3.69651
              CHANNELS 3 Zrotation Xrotation Yrotation
              JOINT RightArm
              {
                OFFSET 13.0012 0 0
                CHANNELS 3 Zrotation Xrotation Yrotation
                JOINT RightForeArm
                {
                  OFFSET 28.7848 1.52588e-005 0
                  CHANNELS 3 Zrotation Xrotation Yrotation
                  JOINT RightHand
                  {
                    OFFSET 26.5688 1.52588e-005 0
                    CHANNELS 3 Zrotation Xrotation Yrotation
                    End Site
                    {
                      OFFSET 0 0 0
                    }
                  }
                }
              }
            }
            JOINT LeftShoulder
            {
              OFFSET 2.38034 -1.29275 -3.7523
              CHANNELS 3 Zrotation Xrotation Yrotation
              JOINT LeftArm
              {
                OFFSET 16.3182 6.10352e-005 0
                CHANNELS 3 Zrotation Xrotation Yrotation
                JOINT LeftForeArm
                {
                  OFFSET 27.0901 0 0
                  CHANNELS 3 Zrotation Xrotation Yrotation
                  JOINT LeftHand
                  {
                    OFFSET 24.5451 1.52588e-005 0
                    CHANNELS 3 Zrotation Xrotation Yrotation
                    End Site
                    {
                      OFFSET 0 0 0
                    }
                  }
                }
              }
            }
            JOINT Neck
            {
              OFFSET 5.0226 -0.0266342 0
              CHANNELS 3 Zrotation Xrotation Yrotation
              JOINT Head
              {
                OFFSET 6.69363 2.86102e-005 0
                CHANNELS 3 Zrotation Xrotation Yrotation
                End Site
                {
                  OFFSET 0 0 0
                }
              }
            }
          }
        }
      }
    }
  }
}
MOTION
Frames:	9
Frame Time:	0.0416667
24.4337 95.1094 12.4931 -108.554 -54.1587 -108.418 -169.235 10.7312 99.7961 -70.1485 20.4784 3.94777 70.4788 4.92329 -1.75856 11.9207 1.63968 0.732818 173.699 7.651 98.7706 -31.3471 2.16867 2.69767 77.4174 -6.71041 -5.01239 8.47031 -1.2519 5.35954 -0.25909 7.76416 -89.6866 11.3463 -0.369396 0.661067 -0.324813 -0.339939 0.676684 -22.8595 -0.550993 0.519491 -2.84683 -0.550979 0.5195 91.0057 -30.5333 -104.573 47.2944 -10.9367 6.43284 -2.07509 -23.4279 -24.5493 -23.758 -0.182285 -10.5441 -88.3622 -54.509 81.9894 -15.7967 14.0327 -16.8775 3.53908 5.29392 -1.39431 2.73479 0.0143451 -2.01856 -3.58847 -2.96434 -19.5231 -4.84537 -0.719456 -4.46791 
21.7251 95.4483 14.6803 -101.157 -36.7316 -100.354 -175.298 20.4864 98.1908 -71.0254 4.39668 5.41379 73.4707 6.77388 0.962617 7.47621 2.67046 0.392113 176.914 4.57809 100.817 -30.4514 -13.0742 -0.613338 76.4668 -7.78947 -7.18133 8.545 -1.74521 6.10351 0.51533 7.83697 -89.6981 11.1974 1.16619 0.486436 -0.473147 1.18647 0.434637 -23.0106 0.966072 0.814451 -2.99792 0.966069 0.814447 89.7092 -31.8495 -106.631 39.4999 -10.7504 -1.5426 -4.0076 -24.808 -28.5792 -26.4924 -0.33316 -9.76821 -86.8204 -53.2896 84.0104 -25.3003 10.7495 2.73767 4.40982 -7.70335 -6.20267 4.26247 0.0209064 -2.48681 -3.69806 -2.44023 -24.0103 -4.09395 0.231208 -4.39883 
19.2622 95.6234 16.5706 -98.3461 -17.1731 -95.5362 -179.636 24.96 95.7995 -65.2892 2.40479 6.33134 77.1956 8.64276 2.00633 5.48899 5.75968 -2.38272 179.467 1.11816 100.745 -32.7561 -28.3462 -4.75422 76.6012 -9.08545 -7.05524 7.69648 -3.16886 8.33487 1.31668 8.07396 -89.6663 10.7236 2.77604 0.410262 -0.944417 2.79137 0.287586 -23.4994 2.52434 1.22609 -3.48677 2.52433 1.22609 88.1218 -32.952 -109.229 33.8851 -9.97783 -9.68428 -3.92801 -25.3182 -26.3765 -28.3965 -0.404893 -9.26454 -86.0384 -52.6913 85.0615 -33.9087 14.4736 14.0472 2.61747 -3.97481 -9.20776 -2.30681 -0.108194 -3.75035 -4.7951 -1.61686 -25.8647 -3.26105 0.970652 -5.14865 
15.9126 95.8232 18.2699 -97.6785 0.212944 -94.954 179.19 26.1983 91.2047 -52.2595 11.2566 5.14131 73.6412 6.84149 -0.661785 10.6545 1.88051 0.627039 178.159 -3.2 96.9353 -34.3851 -44.9659 -6.65367 75.7408 -10.67 -6.5577 8.47051 -3.48528 8.80405 1.83035 8.27765 -89.5387 10.3124 3.85765 0.582757 -1.35289 3.87955 0.412152 -23.9266 3.50395 1.71652 -3.91395 3.50399 1.71652 86.6565 -32.0331 -112.381 32.5504 -11.4038 -13.9091 -4.12102 -27.5791 -25.9802 -25.9137 -0.535087 -9.62025 -86.503 -54.0176 84.5769 -36.7428 19.7692 15.8469 2.41013 10.4331 -10.7141 -12.1322 0.144085 -6.8694 -5.58514 -1.27571 -25.7925 -3.70757 1.17198 -7.32543 
11.0463 95.4668 18.923 -96.7996 9.3795 -93.0281 -179.992 24.5195 86.2984 -30.2181 25.2706 1.26841 67.7514 3.38535 -3.58043 24.1346 -4.84147 7.37396 176.028 -6.62734 93.0762 -34.9481 -56.2595 -7.84519 75.7564 -12.929 -8.0863 7.16166 -5.03715 11.1586 1.89037 8.23285 -89.3919 10.3967 4.04443 0.85395 -1.26817 4.07807 0.674827 -23.8432 3.6006 2.03136 -3.8305 3.60059 2.03135 86.0441 -31.3394 -113.857 31.8617 -16.4207 -15.7046 -2.24887 -29.2924 -23.4498 -26.0117 -0.83311 -8.46726 -86.331 -54.8601 84.9429 -33.7329 21.8053 13.5961 2.93091 12.51 -12.175 -10.0399 0.0145269 -5.93761 -6.11406 -1.50981 -24.6744 -3.71151 0.743134 -8.86618 
4.59083 94.2807 18.4448 -96.052 16.2714 -92.356 179.561 21.7501 82.217 -18.83 20.7311 -0.786211 66.5491 2.36657 -7.49889 22.1996 -6.24954 9.40745 174.54 -10.6219 90.1982 -36.2452 -60.3469 -9.72299 77.044 -14.3298 -7.53077 7.03815 -6.24796 12.9816 1.80963 7.99835 -89.2826 10.8618 3.93458 1.05808 -0.803484 3.97731 0.883631 -23.3737 3.43455 2.19278 -3.36102 3.43453 2.19277 85.4287 -31.3667 -115.009 32.6573 -19.7489 -14.6625 1.33348 -30.4592 -19.1703 -23.9039 -0.878551 -8.62612 -86.4365 -54.7385 84.775 -26.2721 19.4079 9.61798 2.91116 4.58312 -11.3648 -4.32947 -0.114783 -3.15205 -7.7326 -1.95792 -22.7399 -2.42677 -0.292548 -9.79945 
-3.51923 94.0926 16.2901 -96.5199 22.5559 -93.7358 179.125 22.246 79.222 -29.1905 21.4721 -0.451422 65.2208 2.41895 -5.07155 13.1955 -2.37081 4.92507 173.735 -16.1741 86.6149 -39.7147 -60.1824 -16.0505 73.787 -10.1879 -4.83158 11.6747 -6.5096 13.9803 1.67256 7.75572 -88.9428 11.339 3.82127 1.7212 -0.327229 3.89332 1.55115 -22.8863 3.12735 2.79058 -2.87361 3.12733 2.79057 85.2895 -32.2109 -114.863 34.8128 -21.1524 -11.9943 4.5167 -33.5134 -13.8436 -22.2634 -1.31103 -6.96123 -86.17 -56.2601 85.3617 -16.5953 11.9821 4.02013 3.95445 -5.08155 -7.29832 0.999492 -0.0667442 -3.3282 -10.663 -1.99132 -23.0688 -1.94335 -0.964689 -10.3869 
-10.6372 94.0251 13.519 -98.1437 29.4953 -94.4082 -179.178 17.7474 78.5316 -33.4888 16.5049 -2.2511 72.5124 5.14823 -4.83066 11.2583 -1.12259 3.7953 171.129 -16.7097 81.3175 -42.3742 -54.5552 -13.9415 63.0825 -2.0056 1.99795 31.2658 -2.06505 3.7234 1.48067 7.64734 -88.6917 11.541 3.55773 2.24224 -0.126716 3.65295 2.08338 -22.6715 2.71968 3.20776 -2.65889 2.71968 3.20775 86.4213 -31.5595 -113.037 38.3279 -22.2388 -7.98609 6.90472 -30.979 -11.951 -22.6192 -1.32663 -5.94582 -86.0147 -55.951 85.5395 -11.6259 8.77864 -2.81514 4.03669 -16.2819 -4.12949 2.68081 -0.0638382 -3.78024 -12.0582 -1.81501 -22.7516 -2.75309 -1.011 -10.4874 
-15.3297 94.6992 11.5737 -99.281 39.4347 -92.3375 -178.428 13.0024 79.8925 -33.0016 9.53389 -3.54156 77.1842 6.4216 -6.61315 11.9684 -2.66065 5.41664 173.735 -5.10748 78.2046 -57.039 -38.9485 -10.0114 70.6533 -5.46654 -1.31107 27.2276 -1.09658 2.84938 1.18508 7.71255 -88.9207 11.4238 2.86187 1.86051 -0.245122 2.94096 1.7327 -22.7857 2.17057 2.63454 -2.77307 2.17057 2.63454 87.3272 -30.2025 -111.92 37.225 -23.3079 -5.21857 4.52273 -30.3644 -15.6801 -25.4023 -1.00787 -7.6708 -86.3971 -54.8174 84.8427 -9.71754 10.3011 -7.98569 3.22286 -12.7225 -8.80486 2.56097 -0.114527 -4.92673 -10.2953 -0.516643 -20.5343 -2.70666 0.529966 -7.65293 
